STARTFONT 2.1
FONT -Monotype-Arial Narrow-Bold-R-Normal--36-360-75-75-P-149-iso8859-4
SIZE 36 75 75
FONTBOUNDINGBOX 36 45 -5 -9

STARTPROPERTIES 24
FOUNDRY "Monotype"
FAMILY_NAME "Arial Narrow"
WEIGHT_NAME "Bold"
SLANT "R"
SETWIDTH_NAME "Normal"
ADD_STYLE_NAME ""
PIXEL_SIZE 36
POINT_SIZE 360
RESOLUTION_X 75
RESOLUTION_Y 75
SPACING "P"
AVERAGE_WIDTH 149
CHARSET_REGISTRY "iso8859"
CHARSET_ENCODING "4"
FACE_NAME "Arial Narrow Bold ISO Latin4"
_DEC_DEVICE_FONTNAMES "PS=arialnarrow-b-lat4"
COPYRIGHT "Copyright (c) 1993 Monotype Typography Ltd."
CAP_HEIGHT 32
X_HEIGHT 23
WEIGHT 10
QUAD_WIDTH 20
DEFAULT_CHAR 160
FONT_DESCENT 9
FONT_ASCENT 36
ENDPROPERTIES

CHARS 191

STARTCHAR space
ENCODING 32
SWIDTH 228 0
DWIDTH 9 0
BBX 0 0 0 0
BITMAP
ENDCHAR

STARTCHAR exclam
ENCODING 33
SWIDTH 273 0
DWIDTH 10 0
BBX 5 28 2 0
BITMAP
F8
F8
F8
F8
F8
F8
F8
F8
F8
F8
F8
70
70
70
70
70
70
70
70
70
70
00
00
78
78
78
78
78
ENDCHAR

STARTCHAR quotedbl
ENCODING 34
SWIDTH 389 0
DWIDTH 15 0
BBX 12 10 1 18
BITMAP
F9F0
F9F0
F9F0
F9F0
F9F0
F9F0
F9F0
70E0
70E0
70E0
ENDCHAR

STARTCHAR numbersign
ENCODING 35
SWIDTH 456 0
DWIDTH 17 0
BBX 17 28 0 0
BITMAP
038700
038F00
078F00
078F00
078E00
070E00
070E00
FFFF80
FFFF80
FFFF80
FFFF80
0E1C00
0E1C00
0E3C00
1E3C00
1E3C00
1E3800
FFFF80
FFFF80
FFFF80
FFFF80
3C7800
3C7000
387000
387000
38F000
78F000
78F000
ENDCHAR

STARTCHAR dollar
ENCODING 36
SWIDTH 456 0
DWIDTH 17 0
BBX 15 34 2 -4
BITMAP
0300
0300
0FC0
3FF0
3FF0
7FF8
7B78
F33C
F330
F300
F300
FB00
7F00
7F80
3FE0
3FF8
0FF8
03FC
037C
033C
031C
731E
F31C
F33C
FB3C
FF7C
7FF8
7FF8
3FF0
0FC0
0300
0300
0300
0300
ENDCHAR

STARTCHAR percent
ENCODING 37
SWIDTH 729 0
DWIDTH 28 0
BBX 24 29 2 -1
BITMAP
3E00F0
7F00E0
7F00E0
F781C0
E381C0
E38380
E38380
E38700
E38700
E38700
F78E00
7F0E00
7F1C00
1E1C00
001C7C
0038FE
0038FE
0071EF
0071C7
00E1C7
00E1C7
00E1C7
01C1C7
01C1C7
0381C7
0381EF
0380FE
0700FE
07003C
ENDCHAR

STARTCHAR ampersand
ENCODING 38
SWIDTH 592 0
DWIDTH 22 0
BBX 20 28 2 0
BITMAP
01E000
07F800
0FFC00
1FFC00
1F1E00
1E1E00
1E1E00
1F1E00
1F3E00
0FBC00
0FF800
07F000
0FE000
1FE000
3FF000
7EF9C0
7CFBE0
F87DC0
F07FC0
F03FC0
F01F80
F01F80
F81FC0
FC7FE0
7FFFF0
3FFDF0
1FF9E0
0FE040
ENDCHAR

STARTCHAR quoteright
ENCODING 39
SWIDTH 228 0
DWIDTH 9 0
BBX 4 11 2 17
BITMAP
F0
F0
F0
F0
F0
30
30
70
E0
C0
80
ENDCHAR

STARTCHAR parenleft
ENCODING 40
SWIDTH 273 0
DWIDTH 10 0
BBX 8 36 2 -8
BITMAP
07
0E
0E
1E
1C
3C
3C
38
78
78
78
78
F0
F0
F0
F0
F0
F0
F0
F0
F0
F0
F0
F8
78
78
78
78
38
3C
3C
1C
1C
0E
0E
07
ENDCHAR

STARTCHAR parenright
ENCODING 41
SWIDTH 273 0
DWIDTH 10 0
BBX 8 36 1 -8
BITMAP
F0
70
78
38
38
3C
3C
1E
1E
1E
1E
0F
0F
0F
0F
0F
0F
0F
0F
0F
0F
0F
0F
0F
1E
1E
1E
1E
1C
3C
3C
38
38
70
70
E0
ENDCHAR

STARTCHAR asterisk
ENCODING 42
SWIDTH 319 0
DWIDTH 12 0
BBX 11 13 1 15
BITMAP
0C00
0C00
0C00
CC40
EDC0
FFE0
FFC0
1E00
3F00
3B00
7380
7380
2100
ENDCHAR

STARTCHAR plus
ENCODING 43
SWIDTH 479 0
DWIDTH 18 0
BBX 16 19 1 4
BITMAP
03C0
03C0
03C0
03C0
03C0
03C0
03C0
FFFF
FFFF
FFFF
FFFF
FFFF
03C0
03C0
03C0
03C0
03C0
03C0
03C0
ENDCHAR

STARTCHAR comma
ENCODING 44
SWIDTH 228 0
DWIDTH 9 0
BBX 4 11 2 -6
BITMAP
F0
F0
F0
F0
F0
30
30
70
E0
C0
80
ENDCHAR

STARTCHAR minus
ENCODING 45
SWIDTH 479 0
DWIDTH 18 0
BBX 16 5 1 11
BITMAP
FFFF
FFFF
FFFF
FFFF
FFFF
ENDCHAR

STARTCHAR period
ENCODING 46
SWIDTH 228 0
DWIDTH 9 0
BBX 4 5 2 0
BITMAP
F0
F0
F0
F0
F0
ENDCHAR

STARTCHAR slash
ENCODING 47
SWIDTH 228 0
DWIDTH 9 0
BBX 9 28 0 0
BITMAP
0780
0700
0700
0700
0700
0F00
0E00
0E00
0E00
0E00
1E00
1C00
1C00
1C00
1C00
3C00
3800
3800
3800
3800
7800
7000
7000
7000
7000
F000
E000
E000
ENDCHAR

STARTCHAR zero
ENCODING 48
SWIDTH 456 0
DWIDTH 17 0
BBX 14 28 2 0
BITMAP
0FC0
1FE0
3FF0
7FF8
7CF8
7878
F87C
F87C
F83C
F03C
F03C
F03C
F03C
F03C
F03C
F03C
F03C
F03C
F03C
F83C
F87C
787C
7878
7CF8
7FF8
3FF0
1FE0
0FC0
ENDCHAR

STARTCHAR one
ENCODING 49
SWIDTH 456 0
DWIDTH 17 0
BBX 10 27 2 0
BITMAP
03C0
03C0
07C0
0FC0
1FC0
3FC0
FFC0
FDC0
FBC0
E3C0
C3C0
03C0
03C0
03C0
03C0
03C0
03C0
03C0
03C0
03C0
03C0
03C0
03C0
03C0
03C0
03C0
03C0
ENDCHAR

STARTCHAR two
ENCODING 50
SWIDTH 456 0
DWIDTH 17 0
BBX 15 28 1 0
BITMAP
07E0
1FF8
3FFC
3FFC
7E7E
7C3E
781E
781E
381E
001E
003E
003E
007C
00FC
00F8
01F0
03F0
07E0
0FC0
0F80
1F00
3F00
3E00
7FFE
7FFE
7FFE
FFFE
FFFE
ENDCHAR

STARTCHAR three
ENCODING 51
SWIDTH 456 0
DWIDTH 17 0
BBX 15 28 1 0
BITMAP
07C0
1FF0
3FF8
3FF8
7FFC
7C7C
783C
783C
183C
003C
007C
03F8
03E0
03F0
03F8
007C
003E
001E
001E
001E
F81E
783E
783E
7C7C
3FFC
3FF8
1FF0
07C0
ENDCHAR

STARTCHAR four
ENCODING 52
SWIDTH 456 0
DWIDTH 17 0
BBX 16 27 1 0
BITMAP
0078
0078
00F8
01F8
01F8
03F8
03F8
07F8
07B8
0F78
0F78
1E78
3C78
3C78
7878
7878
F078
FFFF
FFFF
FFFF
FFFF
FFFF
0078
0078
0078
0078
0078
ENDCHAR

STARTCHAR five
ENCODING 53
SWIDTH 456 0
DWIDTH 17 0
BBX 15 27 1 0
BITMAP
1FFC
1FFC
1FFC
3FFC
3FFC
3C00
3C00
3C00
3C00
7DE0
7FF8
7FF8
7FFC
7C7C
383E
003E
001E
001E
001E
381E
F83E
783E
7C7C
7FFC
3FF8
1FF0
07C0
ENDCHAR

STARTCHAR six
ENCODING 54
SWIDTH 456 0
DWIDTH 17 0
BBX 15 28 1 0
BITMAP
07E0
0FF0
1FF8
3FFC
3F7C
7C3C
7C3E
7838
7800
F800
F9E0
FBF0
FFF8
FFFC
FC7C
FC3E
F81E
F81E
F81E
781E
781E
7C1E
7C3E
3E7C
3FFC
1FF8
0FF0
07E0
ENDCHAR

STARTCHAR seven
ENCODING 55
SWIDTH 456 0
DWIDTH 17 0
BBX 15 27 1 0
BITMAP
FFFE
FFFE
FFFE
FFFE
FFFE
003C
0078
0078
00F0
00F0
01E0
01E0
03C0
03C0
03C0
0780
0780
0780
0780
0F00
0F00
0F00
0F00
0F00
0F00
0F00
1F00
ENDCHAR

STARTCHAR eight
ENCODING 56
SWIDTH 456 0
DWIDTH 17 0
BBX 14 28 2 0
BITMAP
0F80
3FE0
7FF0
7FF0
F8F8
F078
F078
F078
F078
7078
78F0
3FF0
1FC0
1FE0
3FF0
7CF8
7878
F03C
F03C
F03C
F03C
F03C
F87C
7CF8
7FF8
3FF0
1FE0
0FC0
ENDCHAR

STARTCHAR nine
ENCODING 57
SWIDTH 456 0
DWIDTH 17 0
BBX 15 28 1 0
BITMAP
0FC0
1FE0
3FF0
7FF8
7CF8
F87C
F87C
F03C
F03E
F03E
F03E
F03E
F83E
F87E
7CFE
7FFE
3FFE
1FDE
073E
003E
003C
F83C
787C
7CF8
7FF8
3FF0
3FE0
0FC0
ENDCHAR

STARTCHAR colon
ENCODING 58
SWIDTH 273 0
DWIDTH 10 0
BBX 4 20 3 0
BITMAP
F0
F0
F0
F0
F0
00
00
00
00
00
00
00
00
00
00
F0
F0
F0
F0
F0
ENDCHAR

STARTCHAR semicolon
ENCODING 59
SWIDTH 273 0
DWIDTH 10 0
BBX 4 26 3 -6
BITMAP
F0
F0
F0
F0
F0
00
00
00
00
00
00
00
00
00
00
F0
F0
F0
F0
F0
30
30
70
E0
C0
80
ENDCHAR

STARTCHAR less
ENCODING 60
SWIDTH 479 0
DWIDTH 18 0
BBX 15 21 2 3
BITMAP
0002
000E
003E
00FE
01FE
07FE
1FF8
7FE0
FF00
FC00
F000
FC00
FF00
7FC0
1FF8
07FE
01FE
00FE
003E
000E
0002
ENDCHAR

STARTCHAR equal
ENCODING 61
SWIDTH 479 0
DWIDTH 18 0
BBX 16 13 1 7
BITMAP
FFFF
FFFF
FFFF
FFFF
FFFF
0000
0000
0000
FFFF
FFFF
FFFF
FFFF
FFFF
ENDCHAR

STARTCHAR greater
ENCODING 62
SWIDTH 479 0
DWIDTH 18 0
BBX 15 21 2 3
BITMAP
8000
C000
F000
FC00
FE00
FF80
3FE0
0FF8
03FE
00FE
003E
00FE
03FE
0FFC
3FF0
FFC0
FF00
FC00
F000
C000
8000
ENDCHAR

STARTCHAR question
ENCODING 63
SWIDTH 501 0
DWIDTH 19 0
BBX 16 28 2 0
BITMAP
07E0
1FF8
3FFC
7FFE
7C3E
F81F
F80F
F00F
300F
001F
001F
003E
007E
00FC
01F8
01F0
03E0
03C0
03C0
03C0
03C0
0000
0000
03C0
03C0
03C0
03C0
03C0
ENDCHAR

STARTCHAR at
ENCODING 64
SWIDTH 800 0
DWIDTH 30 0
BBX 30 36 1 -8
BITMAP
001FF000
007FFC00
01FFFF00
03F83F80
07C007C0
0F8003E0
0F0001E0
1E0000F0
1C1F9E70
383FDC70
387FFC30
70F8FC38
70F07C38
71F07C38
E1E07C38
E1E07838
E3C07838
E3C07838
E3C07870
E3C07870
E3C07870
E3C0F0E0
E3C0F1E0
73E1F3C0
71F3FF80
71FFFF80
78FEFE00
387C7C00
3C00003C
1E000078
0F0000F0
0FC003E0
07F81FC0
01FFFF80
00FFFF00
001FF800
ENDCHAR

STARTCHAR A
ENCODING 65
SWIDTH 592 0
DWIDTH 22 0
BBX 22 28 0 0
BITMAP
007C00
00FC00
00FC00
00FE00
01FE00
01FE00
01FF00
03EF00
03EF00
03CF80
07CF80
07C780
0787C0
0787C0
0F87C0
0F83C0
0F03E0
1FFFE0
1FFFE0
1FFFF0
3FFFF0
3FFFF0
3C00F8
7C00F8
7C0078
7C007C
F8007C
F8007C
ENDCHAR

STARTCHAR B
ENCODING 66
SWIDTH 592 0
DWIDTH 22 0
BBX 18 28 3 0
BITMAP
FFF800
FFFE00
FFFF00
FFFF00
FFFF80
F00F80
F00780
F00780
F00780
F00780
F00F00
FFFF00
FFFC00
FFFE00
FFFF00
FFFF80
F00FC0
F007C0
F007C0
F007C0
F007C0
F007C0
F00F80
FFFF80
FFFF80
FFFF00
FFFE00
FFF800
ENDCHAR

STARTCHAR C
ENCODING 67
SWIDTH 592 0
DWIDTH 22 0
BBX 20 28 1 0
BITMAP
00F800
03FF00
0FFF80
1FFFC0
1FFFC0
3F07E0
3E03E0
7C01F0
7C01C0
780000
F80000
F80000
F80000
F80000
F80000
F80000
F80000
F80000
7801C0
7C01F0
7C03E0
3E03E0
3F0FE0
1FFFC0
1FFF80
0FFF00
03FE00
00F800
ENDCHAR

STARTCHAR D
ENCODING 68
SWIDTH 592 0
DWIDTH 22 0
BBX 19 28 2 0
BITMAP
FFF000
FFFC00
FFFE00
FFFF00
FFFF80
F01F80
F007C0
F007C0
F003C0
F003E0
F003E0
F003E0
F003E0
F003E0
F003E0
F003E0
F003E0
F003E0
F003E0
F003C0
F007C0
F007C0
F01F80
FFFF80
FFFF00
FFFE00
FFFC00
FFF000
ENDCHAR

STARTCHAR E
ENCODING 69
SWIDTH 547 0
DWIDTH 21 0
BBX 17 28 3 0
BITMAP
FFFF00
FFFF00
FFFF00
FFFF00
FFFF00
F00000
F00000
F00000
F00000
F00000
F00000
FFFE00
FFFE00
FFFE00
FFFE00
FFFE00
F00000
F00000
F00000
F00000
F00000
F00000
F00000
FFFF80
FFFF80
FFFF80
FFFF80
FFFF80
ENDCHAR

STARTCHAR F
ENCODING 70
SWIDTH 501 0
DWIDTH 19 0
BBX 15 28 2 0
BITMAP
FFFE
FFFE
FFFE
FFFE
FFFE
F000
F000
F000
F000
F000
F000
FFFC
FFFC
FFFC
FFFC
FFFC
F000
F000
F000
F000
F000
F000
F000
F000
F000
F000
F000
F000
ENDCHAR

STARTCHAR G
ENCODING 71
SWIDTH 638 0
DWIDTH 24 0
BBX 21 28 1 0
BITMAP
00FE00
03FF80
07FFC0
0FFFE0
1FFFF0
3F03F0
3E01F8
7C00F8
7C00E0
7C0000
F80000
F80000
F80000
F80FF8
F80FF8
F80FF8
F80FF8
780FF8
7C0078
7C0078
7C0078
3E00F8
3F03F8
1FFFF8
0FFFF0
07FFE0
03FF80
007C00
ENDCHAR

STARTCHAR H
ENCODING 72
SWIDTH 592 0
DWIDTH 22 0
BBX 17 28 3 0
BITMAP
F00780
F00780
F00780
F00780
F00780
F00780
F00780
F00780
F00780
F00780
F00780
FFFF80
FFFF80
FFFF80
FFFF80
FFFF80
F00780
F00780
F00780
F00780
F00780
F00780
F00780
F00780
F00780
F00780
F00780
F00780
ENDCHAR

STARTCHAR I
ENCODING 73
SWIDTH 228 0
DWIDTH 9 0
BBX 4 28 2 0
BITMAP
F0
F0
F0
F0
F0
F0
F0
F0
F0
F0
F0
F0
F0
F0
F0
F0
F0
F0
F0
F0
F0
F0
F0
F0
F0
F0
F0
F0
ENDCHAR

STARTCHAR J
ENCODING 74
SWIDTH 456 0
DWIDTH 17 0
BBX 14 28 1 0
BITMAP
003C
003C
003C
003C
003C
003C
003C
003C
003C
003C
003C
003C
003C
003C
003C
003C
003C
003C
703C
F03C
F83C
F87C
FC7C
7FF8
7FF8
3FF0
1FE0
0780
ENDCHAR

STARTCHAR K
ENCODING 75
SWIDTH 592 0
DWIDTH 22 0
BBX 20 28 3 0
BITMAP
F007E0
F00FC0
F00FC0
F01F80
F03F00
F07E00
F07C00
F0FC00
F1F800
F3F000
F3E000
F7E000
FFF000
FFF000
FFF800
FEF800
FE7C00
FC7C00
F83E00
F03F00
F01F00
F01F80
F00F80
F00FC0
F00FC0
F007E0
F007E0
F003F0
ENDCHAR

STARTCHAR L
ENCODING 76
SWIDTH 501 0
DWIDTH 19 0
BBX 15 27 3 0
BITMAP
F000
F000
F000
F000
F000
F000
F000
F000
F000
F000
F000
F000
F000
F000
F000
F000
F000
F000
F000
F000
F000
F000
FFFE
FFFE
FFFE
FFFE
FFFE
ENDCHAR

STARTCHAR M
ENCODING 77
SWIDTH 683 0
DWIDTH 26 0
BBX 21 28 2 0
BITMAP
FE03F8
FE03F8
FE03F8
FE03F8
FF03F8
FF07F8
F707B8
F707B8
F70778
F78F78
F78F78
F78F78
F78F78
F38E78
F3DE78
F3DE78
F3DE78
F3DE78
F1DC78
F1FC78
F1FC78
F1FC78
F1FC78
F0FC78
F0F878
F0F878
F0F878
F0F878
ENDCHAR

STARTCHAR N
ENCODING 78
SWIDTH 592 0
DWIDTH 22 0
BBX 18 28 2 0
BITMAP
F803C0
F803C0
FC03C0
FC03C0
FE03C0
FE03C0
FF03C0
FF03C0
FF83C0
FF83C0
F7C3C0
F7C3C0
F3E3C0
F3E3C0
F1F3C0
F1F3C0
F0FBC0
F0FBC0
F07DC0
F07FC0
F03FC0
F03FC0
F01FC0
F01FC0
F00FC0
F00FC0
F007C0
F007C0
ENDCHAR

STARTCHAR O
ENCODING 79
SWIDTH 638 0
DWIDTH 24 0
BBX 22 28 1 0
BITMAP
00FC00
03FF00
0FFFC0
1FFFE0
1FFFE0
3F03F0
3E01F8
7C00F8
7C00F8
780078
F8007C
F8007C
F8007C
F8007C
F8007C
F8007C
F8007C
F8007C
7C0078
7C00F8
7C00F8
3E01F0
3F03F0
1FFFE0
1FFFE0
0FFFC0
03FF00
00FC00
ENDCHAR

STARTCHAR P
ENCODING 80
SWIDTH 547 0
DWIDTH 21 0
BBX 17 28 3 0
BITMAP
FFF000
FFFC00
FFFE00
FFFF00
FFFF00
F01F00
F00F80
F00F80
F00F80
F00F80
F00F80
F00F80
F03F00
FFFF00
FFFF00
FFFE00
FFFC00
FFE000
F00000
F00000
F00000
F00000
F00000
F00000
F00000
F00000
F00000
F00000
ENDCHAR

STARTCHAR Q
ENCODING 81
SWIDTH 638 0
DWIDTH 24 0
BBX 23 30 1 -2
BITMAP
00FC00
03FF00
0FFFC0
1FFFE0
1FFFF0
3F03F0
3E01F8
7C00F8
7C00F8
780078
F8007C
F8007C
F8007C
F8007C
F8007C
F8007C
F8007C
F8007C
781078
7C1CF8
7C3EF8
3E1FF0
3F07F0
1FFFE0
1FFFF0
07FFF8
03FFFE
007C7C
00003C
000008
ENDCHAR

STARTCHAR R
ENCODING 82
SWIDTH 592 0
DWIDTH 22 0
BBX 20 28 3 0
BITMAP
FFF800
FFFE00
FFFF00
FFFF80
FFFF80
F00FC0
F007C0
F007C0
F007C0
F007C0
F007C0
F01F80
FFFF80
FFFF00
FFFE00
FFF000
F1F800
F07C00
F07E00
F03E00
F03F00
F01F00
F01F80
F00F80
F00FC0
F007C0
F003E0
F003F0
ENDCHAR

STARTCHAR S
ENCODING 83
SWIDTH 547 0
DWIDTH 21 0
BBX 18 28 1 0
BITMAP
03F000
0FFC00
1FFE00
3FFF00
7FFF80
7C0F80
780F80
7807C0
7807C0
7C0000
7F8000
3FF000
3FFE00
1FFF00
07FF80
01FF80
001FC0
0007C0
7803C0
F803C0
F803C0
7C07C0
7E0FC0
7FFF80
3FFF80
1FFF00
0FFE00
01F000
ENDCHAR

STARTCHAR T
ENCODING 84
SWIDTH 501 0
DWIDTH 19 0
BBX 18 28 1 0
BITMAP
FFFFC0
FFFFC0
FFFFC0
FFFFC0
FFFFC0
01E000
01E000
01E000
01E000
01E000
01E000
01E000
01E000
01E000
01E000
01E000
01E000
01E000
01E000
01E000
01E000
01E000
01E000
01E000
01E000
01E000
01E000
01E000
ENDCHAR

STARTCHAR U
ENCODING 85
SWIDTH 592 0
DWIDTH 22 0
BBX 17 28 3 0
BITMAP
F00780
F00780
F00780
F00780
F00780
F00780
F00780
F00780
F00780
F00780
F00780
F00780
F00780
F00780
F00780
F00780
F00780
F00780
F00780
F00780
F80F80
F80F80
FC1F80
7FFF00
7FFF00
3FFE00
1FFC00
03F000
ENDCHAR

STARTCHAR V
ENCODING 86
SWIDTH 547 0
DWIDTH 21 0
BBX 21 28 0 0
BITMAP
F800F8
F800F0
7C01F0
7C01F0
7C01F0
3C01E0
3E03E0
3E03E0
3E03C0
1E07C0
1F07C0
1F07C0
0F0780
0F8F80
0F8F80
0F8F00
078F00
07DF00
07DE00
03DE00
03DE00
03FE00
03FC00
01FC00
01FC00
01F800
00F800
00F800
ENDCHAR

STARTCHAR W
ENCODING 87
SWIDTH 774 0
DWIDTH 29 0
BBX 29 28 0 0
BITMAP
F80FC078
F80FC078
780FC0F8
781FC0F8
781FC0F0
7C1FE0F0
7C1FE0F0
7C3EE1F0
3C3DE1F0
3C3DE1E0
3E3DF1E0
3E3CF1E0
3E7CF1E0
1E78F3E0
1E78F3E0
1E78FBC0
1F787BC0
1F707BC0
0F707BC0
0FF07FC0
0FF03F80
0FF03F80
0FE03F80
07E03F80
07E03F80
07E01F00
07E01F00
07C01F00
ENDCHAR

STARTCHAR X
ENCODING 88
SWIDTH 547 0
DWIDTH 21 0
BBX 21 28 0 0
BITMAP
7C01F0
7E03E0
3E03E0
1F07C0
1F07C0
0F8F80
0F8F80
07DF00
07DF00
03FE00
03FE00
01FC00
01FC00
00F800
01FC00
03FC00
03FE00
07FE00
07DF00
0FDF00
0F8F80
1F8F80
1F07C0
3F07C0
3E03E0
7E03F0
7C01F0
FC01F8
ENDCHAR

STARTCHAR Y
ENCODING 89
SWIDTH 547 0
DWIDTH 21 0
BBX 20 28 0 0
BITMAP
F801F0
FC01F0
7C03E0
7E03E0
3E07C0
3F07C0
1F0F80
1F0F80
0F9F00
0F9F00
07DE00
07FE00
03FC00
03FC00
01F800
01F800
00F000
00F000
00F000
00F000
00F000
00F000
00F000
00F000
00F000
00F000
00F000
00F000
ENDCHAR

STARTCHAR Z
ENCODING 90
SWIDTH 501 0
DWIDTH 19 0
BBX 18 28 0 0
BITMAP
3FFFC0
3FFFC0
3FFFC0
3FFFC0
3FFFC0
000F80
001F80
003F00
003E00
007E00
00FC00
00F800
01F800
03F000
03E000
07E000
0FC000
0F8000
1F8000
3F0000
3E0000
7E0000
FC0000
FFFFC0
FFFFC0
FFFFC0
FFFFC0
FFFFC0
ENDCHAR

STARTCHAR bracketleft
ENCODING 91
SWIDTH 273 0
DWIDTH 10 0
BBX 8 35 2 -7
BITMAP
FF
FF
FF
FF
F0
F0
F0
F0
F0
F0
F0
F0
F0
F0
F0
F0
F0
F0
F0
F0
F0
F0
F0
F0
F0
F0
F0
F0
F0
F0
F0
FF
FF
FF
FF
ENDCHAR

STARTCHAR backslash
ENCODING 92
SWIDTH 228 0
DWIDTH 9 0
BBX 9 28 0 0
BITMAP
E000
E000
F000
7000
7000
7000
7000
7800
3800
3800
3800
3800
3C00
1C00
1C00
1C00
1C00
1E00
0E00
0E00
0E00
0E00
0F00
0700
0700
0700
0700
0780
ENDCHAR

STARTCHAR bracketright
ENCODING 93
SWIDTH 273 0
DWIDTH 10 0
BBX 8 35 0 -7
BITMAP
FF
FF
FF
FF
0F
0F
0F
0F
0F
0F
0F
0F
0F
0F
0F
0F
0F
0F
0F
0F
0F
0F
0F
0F
0F
0F
0F
0F
0F
0F
0F
FF
FF
FF
FF
ENDCHAR

STARTCHAR asciicircum
ENCODING 94
SWIDTH 479 0
DWIDTH 18 0
BBX 14 15 2 13
BITMAP
0780
0780
07C0
0FC0
0FE0
1FE0
1EE0
1EF0
3CF0
3CF0
7C78
7878
787C
F83C
F03C
ENDCHAR

STARTCHAR underscore
ENCODING 95
SWIDTH 456 0
DWIDTH 17 0
BBX 19 2 -1 -5
BITMAP
FFFFE0
FFFFE0
ENDCHAR

STARTCHAR quoteleft
ENCODING 96
SWIDTH 228 0
DWIDTH 9 0
BBX 5 11 2 17
BITMAP
10
38
70
E0
C0
C0
F0
F0
F0
F0
F0
ENDCHAR

STARTCHAR a
ENCODING 97
SWIDTH 456 0
DWIDTH 17 0
BBX 15 20 1 0
BITMAP
0FE0
3FF8
3FF8
7FFC
787C
F83C
003C
007C
07FC
3FFC
7FBC
FC3C
F03C
F03C
F07C
F8FC
FFFC
7FDC
3F9E
1E1E
ENDCHAR

STARTCHAR b
ENCODING 98
SWIDTH 501 0
DWIDTH 19 0
BBX 15 28 2 0
BITMAP
F000
F000
F000
F000
F000
F000
F000
F000
F3E0
F7F8
F7F8
FFFC
FC7C
F83E
F83E
F01E
F01E
F01E
F01E
F01E
F01E
F83E
F83E
FC7C
FFFC
F7F8
F7F0
F3E0
ENDCHAR

STARTCHAR c
ENCODING 99
SWIDTH 456 0
DWIDTH 17 0
BBX 15 20 2 0
BITMAP
07E0
1FF0
3FF8
7FFC
7C7C
F83E
F818
F000
F000
F000
F000
F000
F810
F81E
F83E
7C7C
7FFC
3FF8
1FF0
07E0
ENDCHAR

STARTCHAR d
ENCODING 100
SWIDTH 501 0
DWIDTH 19 0
BBX 15 28 2 0
BITMAP
001E
001E
001E
001E
001E
001E
001E
001E
0F9E
3FDE
3FEE
7FFE
7C7E
F83E
F83E
F01E
F01E
F01E
F01E
F01E
F01E
F83E
F83E
7C7E
7FFE
3FEE
1FDE
0F9E
ENDCHAR

STARTCHAR e
ENCODING 101
SWIDTH 456 0
DWIDTH 17 0
BBX 15 20 1 0
BITMAP
07C0
1FF0
3FF8
7FFC
7C3C
F83E
F01E
F01E
FFFE
FFFE
FFFE
F000
F000
F830
783E
7C7C
7FFC
3FF8
1FF0
07C0
ENDCHAR

STARTCHAR f
ENCODING 102
SWIDTH 273 0
DWIDTH 10 0
BBX 10 28 1 0
BITMAP
0FC0
1FC0
3FC0
3FC0
3E00
3C00
3C00
3C00
FF80
FF80
FF80
FF80
3C00
3C00
3C00
3C00
3C00
3C00
3C00
3C00
3C00
3C00
3C00
3C00
3C00
3C00
3C00
3C00
ENDCHAR

STARTCHAR g
ENCODING 103
SWIDTH 501 0
DWIDTH 19 0
BBX 16 28 1 -8
BITMAP
078F
1FEF
3FF7
3FFF
7E3F
7C1F
781F
780F
F80F
F80F
F80F
F80F
F80F
781F
7C1F
7E3F
3FFF
3FEF
1FCF
078F
000F
600F
7C1F
7E3F
7FFE
3FFE
1FFC
07F0
ENDCHAR

STARTCHAR h
ENCODING 104
SWIDTH 501 0
DWIDTH 19 0
BBX 14 28 3 0
BITMAP
F000
F000
F000
F000
F000
F000
F000
F000
F3E0
F7F8
F7F8
FFFC
FC7C
F83C
F83C
F03C
F03C
F03C
F03C
F03C
F03C
F03C
F03C
F03C
F03C
F03C
F03C
F03C
ENDCHAR

STARTCHAR i
ENCODING 105
SWIDTH 228 0
DWIDTH 9 0
BBX 4 28 2 0
BITMAP
F0
F0
F0
F0
F0
00
00
00
F0
F0
F0
F0
F0
F0
F0
F0
F0
F0
F0
F0
F0
F0
F0
F0
F0
F0
F0
F0
ENDCHAR

STARTCHAR j
ENCODING 106
SWIDTH 228 0
DWIDTH 9 0
BBX 8 36 -2 -8
BITMAP
0F
0F
0F
0F
0F
00
00
00
0F
0F
0F
0F
0F
0F
0F
0F
0F
0F
0F
0F
0F
0F
0F
0F
0F
0F
0F
0F
0F
0F
1F
7F
7F
7E
FE
78
ENDCHAR

STARTCHAR k
ENCODING 107
SWIDTH 456 0
DWIDTH 17 0
BBX 15 28 2 0
BITMAP
F000
F000
F000
F000
F000
F000
F000
F000
F07C
F0F8
F1F8
F1F0
F3E0
F7C0
FFC0
FF80
FF80
FFC0
FFC0
FDE0
F9E0
F1F0
F0F0
F0F8
F078
F07C
F03C
F03E
ENDCHAR

STARTCHAR l
ENCODING 108
SWIDTH 228 0
DWIDTH 9 0
BBX 4 28 2 0
BITMAP
F0
F0
F0
F0
F0
F0
F0
F0
F0
F0
F0
F0
F0
F0
F0
F0
F0
F0
F0
F0
F0
F0
F0
F0
F0
F0
F0
F0
ENDCHAR

STARTCHAR m
ENCODING 109
SWIDTH 729 0
DWIDTH 28 0
BBX 24 20 2 0
BITMAP
F1E0F8
F7F9FE
F7FBFE
FFFFFF
FC7F1F
F83E0F
F83E0F
F03C0F
F03C0F
F03C0F
F03C0F
F03C0F
F03C0F
F03C0F
F03C0F
F03C0F
F03C0F
F03C0F
F03C0F
F03C0F
ENDCHAR

STARTCHAR n
ENCODING 110
SWIDTH 501 0
DWIDTH 19 0
BBX 14 20 3 0
BITMAP
F1E0
F7F0
F7F8
FFFC
FC7C
F83C
F03C
F03C
F03C
F03C
F03C
F03C
F03C
F03C
F03C
F03C
F03C
F03C
F03C
F03C
ENDCHAR

STARTCHAR o
ENCODING 111
SWIDTH 501 0
DWIDTH 19 0
BBX 16 20 2 0
BITMAP
07E0
1FF8
3FFC
3FFC
7C3E
F81F
F81F
F00F
F00F
F00F
F00F
F00F
F00F
F81F
781E
7E7E
3FFC
3FFC
1FF8
07E0
ENDCHAR

STARTCHAR p
ENCODING 112
SWIDTH 501 0
DWIDTH 19 0
BBX 15 27 2 -7
BITMAP
F3E0
F7F0
F7F8
FFFC
FC7C
F83E
F83E
F01E
F01E
F01E
F01E
F01E
F01E
F83E
F83E
FC7C
FFFC
F7F8
F7F0
F1E0
F000
F000
F000
F000
F000
F000
F000
ENDCHAR

STARTCHAR q
ENCODING 113
SWIDTH 501 0
DWIDTH 19 0
BBX 15 27 2 -7
BITMAP
0F9E
1FDE
3FEE
7FFE
7C7E
F83E
F81E
F01E
F01E
F01E
F01E
F01E
F01E
F83E
F83E
7C7E
7FFE
3FEE
1FDE
0F1E
001E
001E
001E
001E
001E
001E
001E
ENDCHAR

STARTCHAR r
ENCODING 114
SWIDTH 319 0
DWIDTH 12 0
BBX 10 20 2 0
BITMAP
F380
F7C0
F7C0
FFC0
FF80
F880
F800
F800
F000
F000
F000
F000
F000
F000
F000
F000
F000
F000
F000
F000
ENDCHAR

STARTCHAR s
ENCODING 115
SWIDTH 456 0
DWIDTH 17 0
BBX 15 20 1 0
BITMAP
07E0
1FF8
3FFC
7FFC
783E
7810
7C00
7FC0
3FF0
3FFC
0FFE
03FE
003E
381E
F81E
7C3E
7FFC
3FFC
1FF8
07E0
ENDCHAR

STARTCHAR t
ENCODING 116
SWIDTH 273 0
DWIDTH 10 0
BBX 9 27 1 0
BITMAP
0400
0C00
1C00
3C00
3C00
3C00
3C00
FF80
FF80
FF80
FF80
3C00
3C00
3C00
3C00
3C00
3C00
3C00
3C00
3C00
3C00
3C00
3E80
3F80
3F80
1F80
0F80
ENDCHAR

STARTCHAR u
ENCODING 117
SWIDTH 501 0
DWIDTH 19 0
BBX 14 20 2 0
BITMAP
F03C
F03C
F03C
F03C
F03C
F03C
F03C
F03C
F03C
F03C
F03C
F03C
F03C
F03C
F87C
F8FC
FFFC
7FDC
3FBC
1E3C
ENDCHAR

STARTCHAR v
ENCODING 118
SWIDTH 456 0
DWIDTH 17 0
BBX 17 20 0 0
BITMAP
F80F80
780F80
780F00
7C0F00
3C1F00
3C1E00
3E1E00
1E3E00
1E3C00
1F3C00
0F7C00
0F7800
0F7800
07B800
07F000
07F000
03F000
03E000
03E000
01E000
ENDCHAR

STARTCHAR w
ENCODING 119
SWIDTH 638 0
DWIDTH 24 0
BBX 24 20 0 0
BITMAP
F03C0F
F83E0F
783E1F
787E1E
787E1E
7C7E1E
3C7F3E
3CF73C
3CF73C
1CF73C
1EE778
1EE7B8
1EE7B8
0FE7F8
0FE3F0
0FC3F0
0FC3F0
07C3F0
07C1E0
0781E0
ENDCHAR

STARTCHAR x
ENCODING 120
SWIDTH 456 0
DWIDTH 17 0
BBX 17 20 0 0
BITMAP
7C1F80
7E1F00
3E3E00
1F3E00
1F7C00
0FB800
0FF800
07F000
07F000
03E000
03F000
07F000
0FF800
0FFC00
1F7C00
1F3E00
3E3E00
3E1F00
7C1F00
FC0F80
ENDCHAR

STARTCHAR y
ENCODING 121
SWIDTH 456 0
DWIDTH 17 0
BBX 17 28 0 -8
BITMAP
F80F80
780F80
7C0F00
7C0F00
3C1F00
3C1E00
3E1E00
1E3E00
1E3C00
1E3C00
0F3C00
0F7C00
0F7800
0FB800
07F800
07F000
07F000
03F000
03E000
03E000
03E000
03E000
03C000
0FC000
7FC000
7F8000
3F0000
3E0000
ENDCHAR

STARTCHAR z
ENCODING 122
SWIDTH 410 0
DWIDTH 16 0
BBX 14 20 1 0
BITMAP
FFFC
FFFC
FFFC
FEFC
01F8
01F0
03E0
07E0
07C0
0F80
1F80
3F00
3E00
7E00
F800
FFFC
FFFC
FFFC
FFFC
FFFC
ENDCHAR

STARTCHAR braceleft
ENCODING 123
SWIDTH 319 0
DWIDTH 12 0
BBX 10 35 1 -7
BITMAP
07C0
0FC0
0FC0
1FC0
1F00
1E00
1E00
1E00
1E00
1E00
1E00
1E00
1E00
3E00
3C00
FC00
F800
F000
F800
FC00
3C00
3E00
1E00
1E00
1E00
1E00
1E00
1E00
1E00
1E00
1F00
1FC0
0FC0
0FC0
03C0
ENDCHAR

STARTCHAR bar
ENCODING 124
SWIDTH 230 0
DWIDTH 9 0
BBX 3 36 3 -8
BITMAP
E0
E0
E0
E0
E0
E0
E0
E0
E0
E0
E0
E0
E0
E0
E0
E0
E0
E0
E0
E0
E0
E0
E0
E0
E0
E0
E0
E0
E0
E0
E0
E0
E0
E0
E0
E0
ENDCHAR

STARTCHAR braceright
ENCODING 125
SWIDTH 319 0
DWIDTH 12 0
BBX 10 35 1 -7
BITMAP
F800
FC00
FC00
FE00
3E00
1E00
1E00
1E00
1E00
1E00
1E00
1E00
1E00
1F00
0F00
0FC0
07C0
03C0
07C0
0FC0
0F00
1F00
1E00
1E00
1E00
1E00
1E00
1E00
1E00
1E00
3E00
FE00
FC00
FC00
F800
ENDCHAR

STARTCHAR asciitilde
ENCODING 126
SWIDTH 479 0
DWIDTH 18 0
BBX 16 8 1 9
BITMAP
3E01
7F81
FFE3
FFFF
FFFF
C3FF
80FE
0038
ENDCHAR

STARTCHAR space
ENCODING 160
SWIDTH 228 0
DWIDTH 10 0
BBX 0 0 0 0
BITMAP
ENDCHAR

STARTCHAR Aogonek
ENCODING 161
SWIDTH 592 0
DWIDTH 22 0
BBX 24 36 0 -8
BITMAP
007C00
00FC00
00FC00
00FE00
01FE00
01FE00
01FF00
01EF00
03EF00
03CF80
03CF80
07C780
07C7C0
0787C0
0F83C0
0F83E0
0F03E0
1FFFE0
1FFFF0
1FFFF0
3FFFF0
3FFFF8
3E00F8
3C00F8
7C007C
7C007C
78007C
F8003E
000030
000070
000070
000070
000078
00003F
00003F
00001E
ENDCHAR

STARTCHAR afii240
ENCODING 162
SWIDTH 556 0
DWIDTH 21 0
BBX 18 20 3 0
BITMAP
F81FC0
F83F00
F87E00
F8FE00
F9FC00
FBF800
FBF000
FFE000
FFF000
FFF000
FFF800
FEF800
FCFC00
F87E00
F83E00
F83F00
F81F00
F81F80
F80F80
F80FC0
ENDCHAR

STARTCHAR Rcommaaccent
ENCODING 163
SWIDTH 592 0
DWIDTH 22 0
BBX 20 37 3 -9
BITMAP
FFF800
FFFE00
FFFF00
FFFF80
FFFF80
F00FC0
F007C0
F007C0
F007C0
F007C0
F007C0
F01F80
FFFF80
FFFF00
FFFE00
FFF000
F1F800
F07C00
F07E00
F03E00
F01F00
F01F80
F00F80
F00F80
F007C0
F007C0
F003E0
F003F0
000000
000000
01C000
01C000
01C000
00C000
01C000
018000
010000
ENDCHAR

STARTCHAR currency
ENCODING 164
SWIDTH 456 0
DWIDTH 17 0
BBX 16 19 1 4
BITMAP
2004
73CE
FFFF
FFFF
7FFE
3FFC
3C3C
781E
781E
781E
781E
781E
3C3C
3FFC
7FFE
FFFF
FFFF
73CE
2004
ENDCHAR

STARTCHAR Itilde
ENCODING 165
SWIDTH 228 0
DWIDTH 9 0
BBX 10 35 -1 0
BITMAP
70C0
FCC0
FFC0
CFC0
C380
0000
0000
1E00
1E00
1E00
1E00
1E00
1E00
1E00
1E00
1E00
1E00
1E00
1E00
1E00
1E00
1E00
1E00
1E00
1E00
1E00
1E00
1E00
1E00
1E00
1E00
1E00
1E00
1E00
1E00
ENDCHAR

STARTCHAR Lcommaaccent
ENCODING 166
SWIDTH 501 0
DWIDTH 19 0
BBX 15 36 3 -9
BITMAP
F000
F000
F000
F000
F000
F000
F000
F000
F000
F000
F000
F000
F000
F000
F000
F000
F000
F000
F000
F000
F000
F000
FFFE
FFFE
FFFE
FFFE
FFFE
0000
0000
0700
0700
0700
0300
0700
0600
0400
ENDCHAR

STARTCHAR section
ENCODING 167
SWIDTH 456 0
DWIDTH 17 0
BBX 15 36 1 -8
BITMAP
0FC0
1FE0
3FF0
7FF8
7C78
787C
7870
7C00
3E00
1F00
3F80
3FE0
7FF0
F3F8
F1FC
F0FC
F07E
F83E
FC1E
7E1E
7F1E
3F9C
1FFC
0FF8
07F0
03F8
00F8
007C
003C
783C
7C3C
7C7C
3FF8
1FF8
1FF0
07C0
ENDCHAR

STARTCHAR hungarumlaut
ENCODING 168
SWIDTH 273 0
DWIDTH 10 0
BBX 12 6 2 22
BITMAP
3DF0
79E0
73C0
F380
E380
C700
ENDCHAR

STARTCHAR Scaron
ENCODING 169
SWIDTH 547 0
DWIDTH 21 0
BBX 18 35 1 0
BITMAP
0F1C00
073800
07B800
03F000
01F000
01E000
000000
03F000
0FFC00
1FFE00
3FFF00
7FFF80
7C0F80
780780
7807C0
7C0600
7E0000
7F8000
3FF000
3FFE00
0FFF00
07FF80
01FF80
001FC0
0007C0
7803C0
F803C0
F803C0
7C07C0
7E0FC0
7FFF80
3FFF80
1FFF00
0FFE00
03F000
ENDCHAR

STARTCHAR Emacron
ENCODING 170
SWIDTH 547 0
DWIDTH 21 0
BBX 17 34 3 0
BITMAP
1FF800
1FF800
1FF800
000000
000000
000000
FFFF00
FFFF00
FFFF00
FFFF00
FFFF00
F00000
F00000
F00000
F00000
F00000
F00000
FFFE00
FFFE00
FFFE00
FFFE00
FFFE00
F00000
F00000
F00000
F00000
F00000
F00000
F00000
FFFF80
FFFF80
FFFF80
FFFF80
FFFF80
ENDCHAR

STARTCHAR Gcommaaccent
ENCODING 171
SWIDTH 638 0
DWIDTH 24 0
BBX 21 36 1 -8
BITMAP
007E00
03FF80
07FFC0
0FFFE0
1FFFF0
3F83F0
3E01F8
7C00F8
7C00E0
7C0000
F80000
F80000
F80000
F80FF8
F80FF8
F80FF8
F80FF8
780FF8
7C0078
7C0078
7E0078
3E00F8
3F83F8
1FFFF8
0FFFF0
07FFE0
03FF80
007C00
000000
003800
003800
003800
001800
003800
003000
002000
ENDCHAR

STARTCHAR afii237
ENCODING 172
SWIDTH 611 0
DWIDTH 23 0
BBX 21 28 1 0
BITMAP
FFFFF8
FFFFF8
FFFFF8
FFFFF8
FFFFF8
00F800
00F800
00F800
00F800
00F800
00F800
00F800
00F800
00F800
3FFFE0
3FFFE0
3FFFE0
00F800
00F800
00F800
00F800
00F800
00F800
00F800
00F800
00F800
00F800
00F800
ENDCHAR

STARTCHAR hyphen
ENCODING 173
SWIDTH 273 0
DWIDTH 10 0
BBX 8 5 1 7
BITMAP
FF
FF
FF
FF
FF
ENDCHAR

STARTCHAR Zcaron
ENCODING 174
SWIDTH 501 0
DWIDTH 19 0
BBX 18 35 0 0
BITMAP
0F3E00
07B800
03F800
03F000
01F000
000000
000000
3FFFC0
3FFFC0
3FFFC0
3FFFC0
3FFFC0
000F80
001F80
003F00
003E00
007E00
00FC00
00F800
01F800
03F000
03E000
07E000
0FC000
0F8000
1F8000
3F0000
3E0000
7E0000
FC0000
FFFFC0
FFFFC0
FFFFC0
FFFFC0
FFFFC0
ENDCHAR

STARTCHAR macron
ENCODING 175
SWIDTH 273 0
DWIDTH 10 0
BBX 10 3 0 23
BITMAP
FFC0
FFC0
FFC0
ENDCHAR

STARTCHAR degree
ENCODING 176
SWIDTH 328 0
DWIDTH 12 0
BBX 10 12 1 16
BITMAP
1E00
3F00
7F80
7380
E1C0
E1C0
E1C0
E1C0
7380
7F80
3F00
1E00
ENDCHAR

STARTCHAR aogonek
ENCODING 177
SWIDTH 456 0
DWIDTH 17 0
BBX 17 27 1 -7
BITMAP
0FE000
3FF800
3FF800
7FFC00
F87C00
703C00
003C00
00FC00
07FC00
3FFC00
7FBC00
FC3C00
F03C00
F03C00
F07C00
F8FC00
FFFC00
7FDE00
3F9E00
0E1800
003800
003800
003800
003C00
001F80
001F80
000F00
ENDCHAR

STARTCHAR ogonek
ENCODING 178
SWIDTH 273 0
DWIDTH 10 0
BBX 7 9 2 -8
BITMAP
60
60
E0
E0
E0
F0
7E
7E
3C
ENDCHAR

STARTCHAR rcommaaccent
ENCODING 179
SWIDTH 319 0
DWIDTH 12 0
BBX 10 29 2 -9
BITMAP
F380
F7C0
F7C0
FFC0
FF80
F880
F800
F800
F000
F000
F000
F000
F000
F000
F000
F000
F000
F000
F000
F000
0000
0000
3800
3800
3800
1800
3800
3000
2000
ENDCHAR

STARTCHAR acute
ENCODING 180
SWIDTH 273 0
DWIDTH 10 0
BBX 7 6 3 22
BITMAP
3E
7C
78
70
F0
E0
ENDCHAR

STARTCHAR itilde
ENCODING 181
SWIDTH 228 0
DWIDTH 9 0
BBX 10 27 -1 0
BITMAP
70C0
FCC0
FFC0
CFC0
C380
0000
0000
1E00
1E00
1E00
1E00
1E00
1E00
1E00
1E00
1E00
1E00
1E00
1E00
1E00
1E00
1E00
1E00
1E00
1E00
1E00
1E00
ENDCHAR

STARTCHAR lcommaaccent
ENCODING 182
SWIDTH 228 0
DWIDTH 9 0
BBX 4 37 3 -9
BITMAP
F0
F0
F0
F0
F0
F0
F0
F0
F0
F0
F0
F0
F0
F0
F0
F0
F0
F0
F0
F0
F0
F0
F0
F0
F0
F0
F0
F0
00
00
E0
E0
E0
60
E0
C0
80
ENDCHAR

STARTCHAR caron
ENCODING 183
SWIDTH 273 0
DWIDTH 10 0
BBX 10 6 0 22
BITMAP
F1C0
73C0
7F80
3F80
1F00
1E00
ENDCHAR

STARTCHAR commaaccent
ENCODING 184
SWIDTH 333 0
DWIDTH 13 0
BBX 3 7 5 -9
BITMAP
E0
E0
E0
60
E0
C0
80
ENDCHAR

STARTCHAR scaron
ENCODING 185
SWIDTH 456 0
DWIDTH 17 0
BBX 15 27 1 0
BITMAP
1E78
0EF0
0FE0
07E0
03C0
0000
0000
07C0
1FF8
3FFC
7FFC
783E
7810
7C00
7FC0
3FF0
3FFC
0FFE
03FE
007E
381E
F81E
7C3E
7FFC
3FFC
1FF8
07E0
ENDCHAR

STARTCHAR emacron
ENCODING 186
SWIDTH 456 0
DWIDTH 17 0
BBX 15 26 1 0
BITMAP
3FF8
3FF8
3FF8
0000
0000
0000
07C0
1FF0
3FF8
7FFC
7C3C
F83C
F01E
F01E
FFFE
FFFE
FFFE
F000
F000
F830
783E
7C7C
7FFC
3FF8
1FF0
07C0
ENDCHAR

STARTCHAR gcommaaccent
ENCODING 187
SWIDTH 501 0
DWIDTH 19 0
BBX 15 37 2 -8
BITMAP
0080
0180
0380
0300
0380
0380
0380
0000
0000
0F9E
1FDE
3FEE
7FFE
7C7E
F83E
F81E
F01E
F01E
F01E
F01E
F01E
F01E
F83E
F83E
7C7E
7FFE
3FEE
1FDE
0F9E
001E
801E
F81E
7C3E
7FFC
7FFC
3FF8
0FE0
ENDCHAR

STARTCHAR afii253
ENCODING 188
SWIDTH 333 0
DWIDTH 13 0
BBX 12 27 0 0
BITMAP
0100
0700
0F00
1F00
1F00
1F00
1F00
7FF0
7FF0
7FF0
7FF0
1F00
1F00
1F00
1F00
1F00
FFF0
FFF0
FFF0
1F00
1F00
1F00
1F90
1FF0
1FF0
0FF0
07F0
ENDCHAR

STARTCHAR afii238
ENCODING 189
SWIDTH 723 0
DWIDTH 27 0
BBX 23 28 3 0
BITMAP
F81F80
F87FE0
F9FFF0
FBFFF0
FFFFF8
FF83FC
FF01FC
FE00FC
FC007C
FC007E
F8007E
F8007E
F8007E
F8007E
F8007E
F8007E
F8007E
F8007E
F8007E
F8007C
F8007C
F800FC
F800FC
F81FF8
F83FF8
F83FF0
F87FE0
F80F80
ENDCHAR

STARTCHAR zcaron
ENCODING 190
SWIDTH 410 0
DWIDTH 16 0
BBX 14 28 1 0
BITMAP
38F0
1DE0
1EC0
0FC0
0F80
0000
0000
0000
FFFC
FFFC
FFFC
FEFC
01F8
01F0
03E0
07E0
07C0
0F80
1F80
3F00
3E00
7E00
F800
FFFC
FFFC
FFFC
FFFC
FFFC
ENDCHAR

STARTCHAR afii254
ENCODING 191
SWIDTH 611 0
DWIDTH 23 0
BBX 18 28 3 -8
BITMAP
F8FC00
FBFF00
FFFF80
FFFFC0
FE0FC0
FC0FC0
FC07C0
F807C0
F807C0
F807C0
F807C0
F807C0
F807C0
F807C0
F807C0
F807C0
F807C0
F807C0
F807C0
F807C0
0007C0
0007C0
000FC0
007FC0
007FC0
007F80
00FF00
007E00
ENDCHAR

STARTCHAR Amacron
ENCODING 192
SWIDTH 592 0
DWIDTH 22 0
BBX 22 34 0 0
BITMAP
03FF00
03FF00
03FF00
000000
000000
000000
007C00
00FC00
00FC00
00FE00
01FE00
01FE00
01FF00
03EF00
03EF00
03CF80
07CF80
07C780
0787C0
0787C0
0F87C0
0F83C0
0F03E0
1FFFE0
1FFFE0
1FFFF0
3FFFF0
3FFFF0
3C00F8
7C00F8
7C0078
7C007C
F8007C
F8007C
ENDCHAR

STARTCHAR Aacute
ENCODING 193
SWIDTH 592 0
DWIDTH 22 0
BBX 22 36 0 0
BITMAP
001F00
001E00
003C00
003C00
007800
007000
000000
000000
007C00
00FC00
00FC00
00FE00
01FE00
01FE00
01FF00
03EF00
03EF00
03CF80
07CF80
07C780
0787C0
0787C0
0F87C0
0F83C0
0F03E0
1FFFE0
1FFFE0
1FFFF0
3FFFF0
3FFFF0
3C00F8
7C00F8
7C0078
7C007C
F8007C
F8007C
ENDCHAR

STARTCHAR Acircumflex
ENCODING 194
SWIDTH 592 0
DWIDTH 22 0
BBX 22 36 0 0
BITMAP
007800
007C00
00FC00
00EE00
01CF00
03C700
000000
000000
007C00
00FC00
00FC00
00FE00
01FE00
01FE00
01FF00
03EF00
03EF00
03CF80
07CF80
07C780
0787C0
0787C0
0F87C0
0F83C0
0F03E0
1FFFE0
1FFFE0
1FFFF0
3FFFF0
3FFFF0
3C00F8
7C00F8
7C0078
7C007C
F8007C
F8007C
ENDCHAR

STARTCHAR Atilde
ENCODING 195
SWIDTH 592 0
DWIDTH 22 0
BBX 22 35 0 0
BITMAP
01E300
03F300
03FF00
033F00
030E00
000000
000000
007C00
00FC00
00FC00
00FE00
01FE00
01FE00
01FF00
03EF00
03EF00
03CF80
07CF80
07C780
0787C0
0787C0
0F87C0
0F83C0
0F03E0
1FFFE0
1FFFE0
1FFFF0
3FFFF0
3FFFF0
3C00F8
7C00F8
7C0078
7C007C
F8007C
F8007C
ENDCHAR

STARTCHAR Adieresis
ENCODING 196
SWIDTH 592 0
DWIDTH 22 0
BBX 23 35 0 0
BITMAP
03C780
03C780
03C780
03C780
000000
000000
000000
007C00
00FC00
00FE00
00FE00
01FE00
01FF00
01FF00
03EF00
03EF80
03CF80
03C780
07C7C0
07C7C0
0787C0
0F83E0
0F83E0
0F01E0
1FFFF0
1FFFF0
1FFFF0
3FFFF8
3FFFF8
3C00F8
7C007C
7C007C
7C007C
F8003E
F8003E
ENDCHAR

STARTCHAR Aring
ENCODING 197
SWIDTH 592 0
DWIDTH 22 0
BBX 22 36 0 0
BITMAP
003800
007800
00CC00
00CC00
00CC00
007800
003000
000000
00F800
00FC00
00FC00
00FC00
01FE00
01FE00
01FE00
03EF00
03DF00
03CF00
07CF00
07CF80
078F80
0F8780
0F87C0
0F07C0
0F03C0
1FFFE0
1FFFE0
1FFFE0
3FFFF0
3FFFF0
3C01F0
7C00F8
7C00F8
7800F8
F8007C
F8007C
ENDCHAR

STARTCHAR AE
ENCODING 198
SWIDTH 820 0
DWIDTH 31 0
BBX 31 28 -1 0
BITMAP
003FFFFC
003FFFFC
007FFFFC
007FFFFC
0079FFFC
00F9E000
00F1E000
01F1E000
01F1E000
01E1E000
03E1E000
03C1FFF8
03C1FFF8
07C1FFF8
0781FFF8
0F81FFF8
0FFFE000
0FFFE000
1FFFE000
1FFFE000
3FFFE000
3E01E000
3E01E000
7C01FFFE
7C01FFFE
7C01FFFE
F801FFFE
F801FFFE
ENDCHAR

STARTCHAR Iogonek
ENCODING 199
SWIDTH 228 0
DWIDTH 9 0
BBX 7 36 1 -8
BITMAP
78
78
78
78
78
78
78
78
78
78
78
78
78
78
78
78
78
78
78
78
78
78
78
78
78
78
78
78
60
E0
E0
E0
F0
7E
7E
3C
ENDCHAR

STARTCHAR Ccaron
ENCODING 200
SWIDTH 592 0
DWIDTH 22 0
BBX 20 35 1 0
BITMAP
079E00
039C00
03DC00
01F800
01F000
000000
000000
00F800
03FE00
0FFF80
1FFFC0
1FFFC0
3F07E0
3E03E0
7C01F0
7C01C0
780000
F80000
F80000
F80000
F80000
F80000
F80000
F80000
F80000
7801C0
7C01F0
7C03E0
3E03E0
3F0FE0
1FFFC0
1FFF80
0FFF00
03FE00
00F800
ENDCHAR

STARTCHAR Eacute
ENCODING 201
SWIDTH 547 0
DWIDTH 21 0
BBX 17 35 3 0
BITMAP
00F800
01E000
01E000
03C000
038000
000000
000000
FFFF00
FFFF00
FFFF00
FFFF00
FFFF00
F00000
F00000
F00000
F00000
F00000
F00000
FFFE00
FFFE00
FFFE00
FFFE00
FFFE00
F00000
F00000
F00000
F00000
F00000
F00000
F00000
FFFF80
FFFF80
FFFF80
FFFF80
FFFF80
ENDCHAR

STARTCHAR Eogonek
ENCODING 202
SWIDTH 547 0
DWIDTH 21 0
BBX 17 36 2 -8
BITMAP
FFFF80
FFFF80
FFFF80
FFFF80
FFFF80
F00000
F00000
F00000
F00000
F00000
F00000
FFFF00
FFFF00
FFFF00
FFFF00
FFFF00
F00000
F00000
F00000
F00000
F00000
F00000
F00000
FFFF80
FFFF80
FFFF80
FFFF80
FFDF80
003800
003800
003800
003800
003C00
001F80
001F80
000F00
ENDCHAR

STARTCHAR Edieresis
ENCODING 203
SWIDTH 547 0
DWIDTH 21 0
BBX 17 35 2 0
BITMAP
1E3C00
1E3C00
1E3C00
1E3C00
000000
000000
000000
FFFF80
FFFF80
FFFF80
FFFF80
FFFF80
F00000
F00000
F00000
F00000
F00000
F00000
FFFF00
FFFF00
FFFF00
FFFF00
FFFF00
F00000
F00000
F00000
F00000
F00000
F00000
F00000
FFFF80
FFFF80
FFFF80
FFFF80
FFFF80
ENDCHAR

STARTCHAR Edotaccent
ENCODING 204
SWIDTH 547 0
DWIDTH 21 0
BBX 16 35 3 0
BITMAP
03C0
03C0
03C0
03C0
03C0
0000
0000
FFFF
FFFF
FFFF
FFFF
FFFF
F000
F000
F000
F000
F000
F000
FFFE
FFFE
FFFE
FFFE
FFFE
F000
F000
F000
F000
F000
F000
F000
FFFF
FFFF
FFFF
FFFF
FFFF
ENDCHAR

STARTCHAR Iacute
ENCODING 205
SWIDTH 228 0
DWIDTH 9 0
BBX 7 36 2 0
BITMAP
3E
7C
78
70
E0
E0
00
00
F0
F0
F0
F0
F0
F0
F0
F0
F0
F0
F0
F0
F0
F0
F0
F0
F0
F0
F0
F0
F0
F0
F0
F0
F0
F0
F0
F0
ENDCHAR

STARTCHAR Icircumflex
ENCODING 206
SWIDTH 228 0
DWIDTH 9 0
BBX 10 36 -1 0
BITMAP
1E00
3F00
3F00
7B80
7380
F3C0
0000
0000
1E00
1E00
1E00
1E00
1E00
1E00
1E00
1E00
1E00
1E00
1E00
1E00
1E00
1E00
1E00
1E00
1E00
1E00
1E00
1E00
1E00
1E00
1E00
1E00
1E00
1E00
1E00
1E00
ENDCHAR

STARTCHAR Imacron
ENCODING 207
SWIDTH 228 0
DWIDTH 9 0
BBX 10 34 -1 0
BITMAP
FFC0
FFC0
FFC0
0000
0000
0000
1E00
1E00
1E00
1E00
1E00
1E00
1E00
1E00
1E00
1E00
1E00
1E00
1E00
1E00
1E00
1E00
1E00
1E00
1E00
1E00
1E00
1E00
1E00
1E00
1E00
1E00
1E00
1E00
ENDCHAR

STARTCHAR Eth
ENCODING 208
SWIDTH 592 0
DWIDTH 22 0
BBX 22 28 -1 0
BITMAP
1FFE00
1FFF80
1FFFC0
1FFFE0
1FFFF0
1E03F0
1E01F8
1E00F8
1E00F8
1E0078
1E007C
1E007C
1E007C
FFF07C
FFF07C
FFF07C
1E007C
1E007C
1E007C
1E0078
1E00F8
1E00F8
1E01F0
1FFFF0
1FFFE0
1FFFC0
1FFF80
1FFE00
ENDCHAR

STARTCHAR Ncommaaccent
ENCODING 209
SWIDTH 592 0
DWIDTH 22 0
BBX 17 37 3 -9
BITMAP
F00780
F80780
F80780
FC0780
FC0780
FE0780
FE0780
FF0780
FF0780
FF8780
F78780
F7C780
F7C780
F3E780
F3E780
F1F780
F1F780
F0FB80
F0FB80
F07F80
F07F80
F03F80
F03F80
F01F80
F01F80
F00F80
F00F80
F00F80
000000
000000
01C000
01C000
01C000
00C000
01C000
018000
010000
ENDCHAR

STARTCHAR Omacron
ENCODING 210
SWIDTH 638 0
DWIDTH 24 0
BBX 22 34 1 0
BITMAP
03FF00
03FF00
03FF00
000000
000000
000000
01FC00
07FF80
0FFFC0
1FFFE0
1FFFE0
3F03F0
3E01F8
7C00F8
7C00F8
780078
F8007C
F8007C
F8007C
F8007C
F8007C
F8007C
F8007C
F8007C
7C0078
7C00F8
7C00F8
3E01F0
3F03F0
1FFFE0
1FFFE0
0FFFC0
03FF00
00FC00
ENDCHAR

STARTCHAR Kcommaaccent
ENCODING 211
SWIDTH 592 0
DWIDTH 22 0
BBX 20 37 3 -9
BITMAP
F007E0
F00FC0
F00FC0
F01F80
F03F00
F07E00
F07C00
F0FC00
F1F800
F3F000
F3E000
F7E000
FFF000
FFF000
FFF800
FEF800
FE7C00
FC7C00
F83E00
F03E00
F01F00
F01F80
F01F80
F00FC0
F00FC0
F007E0
F007E0
F003F0
000000
000000
01C000
01C000
01C000
00C000
01C000
018000
010000
ENDCHAR

STARTCHAR Ocircumflex
ENCODING 212
SWIDTH 638 0
DWIDTH 24 0
BBX 22 35 1 0
BITMAP
007800
00FC00
00FC00
01DE00
03CF00
000000
000000
00FC00
03FF00
0FFFC0
1FFFE0
1FFFE0
3F03F0
3E01F8
7C00F8
7C00F8
780078
F8007C
F8007C
F8007C
F8007C
F8007C
F8007C
F8007C
F8007C
7C0078
7C00F8
7C00F8
3E01F0
3F03F0
1FFFE0
1FFFE0
0FFFC0
03FF00
00FC00
ENDCHAR

STARTCHAR Otilde
ENCODING 213
SWIDTH 638 0
DWIDTH 24 0
BBX 22 35 1 0
BITMAP
01C300
03F300
03FF00
033F00
030E00
000000
000000
00FC00
03FF00
0FFFC0
1FFFE0
1FFFE0
3F03F0
3E01F8
7C00F8
7C00F8
780078
F8007C
F8007C
F8007C
F8007C
F8007C
F8007C
F8007C
F8007C
7C0078
7C00F8
7C00F8
3E01F0
3F03F0
1FFFE0
1FFFE0
0FFFC0
03FF00
00FC00
ENDCHAR

STARTCHAR Odieresis
ENCODING 214
SWIDTH 638 0
DWIDTH 24 0
BBX 22 35 1 0
BITMAP
03CF00
03CF00
03CF00
03CF00
000000
000000
000000
00FC00
03FF00
0FFFC0
1FFFE0
1FFFE0
3F03F0
3E01F8
7C00F8
7C00F8
7C0078
F8007C
F8007C
F8007C
F8007C
F8007C
F8007C
F8007C
F8007C
7C00F8
7C00F8
7E01F8
3E01F0
3F83F0
1FFFE0
1FFFE0
0FFFC0
03FF00
00FC00
ENDCHAR

STARTCHAR multiply
ENCODING 215
SWIDTH 479 0
DWIDTH 18 0
BBX 15 18 2 4
BITMAP
2018
7038
F87E
FC7C
7EF8
3FF0
1FF0
1FE0
0FC0
0FE0
1FF0
3FF0
7EF8
FCFE
F87C
7038
2018
2008
ENDCHAR

STARTCHAR Oslash
ENCODING 216
SWIDTH 638 0
DWIDTH 24 0
BBX 22 30 1 -1
BITMAP
000008
00FC18
03FF3C
0FFFDC
1FFFF8
1FFFF0
3F03F0
3E01F8
7C03F8
7C07F8
780F78
F80F7C
F81E7C
F83C7C
F8787C
F8787C
F8F07C
F9E07C
F9C07C
7DC078
7F80F8
7F00F8
3E01F0
3F03F0
3FFFE0
7FFFE0
77FFC0
F3FF00
607C00
200000
ENDCHAR

STARTCHAR Uogonek
ENCODING 217
SWIDTH 592 0
DWIDTH 22 0
BBX 17 35 3 -7
BITMAP
F00780
F00780
F00780
F00780
F00780
F00780
F00780
F00780
F00780
F00780
F00780
F00780
F00780
F00780
F00780
F00780
F00780
F00780
F00780
F00780
F80F80
F80F80
7C1F80
7FFF00
7FFF00
3FFE00
1FFC00
03E000
018000
038000
038000
03C000
01F800
01F800
00F000
ENDCHAR

STARTCHAR Uacute
ENCODING 218
SWIDTH 592 0
DWIDTH 22 0
BBX 17 36 3 0
BITMAP
00F800
00F000
01E000
01E000
01C000
038000
000000
000000
F00780
F00780
F00780
F00780
F00780
F00780
F00780
F00780
F00780
F00780
F00780
F00780
F00780
F00780
F00780
F00780
F00780
F00780
F00780
F00780
F80F80
F80F80
FC1F80
7FFF00
7FFF00
3FFE00
1FFC00
03E000
ENDCHAR

STARTCHAR Ucircumflex
ENCODING 219
SWIDTH 592 0
DWIDTH 22 0
BBX 17 36 3 0
BITMAP
01C000
03E000
07F000
077000
0F7800
0E3C00
000000
000000
F00780
F00780
F00780
F00780
F00780
F00780
F00780
F00780
F00780
F00780
F00780
F00780
F00780
F00780
F00780
F00780
F00780
F00780
F00780
F00780
F80F80
F80F80
FC1F80
7FFF00
7FFF00
3FFE00
1FFC00
03E000
ENDCHAR

STARTCHAR Udieresis
ENCODING 220
SWIDTH 592 0
DWIDTH 22 0
BBX 17 35 3 0
BITMAP
1E3C00
1E3C00
1E3C00
1E3C00
000000
000000
000000
F00780
F00780
F00780
F00780
F00780
F00780
F00780
F00780
F00780
F00780
F00780
F00780
F00780
F00780
F00780
F00780
F00780
F00780
F00780
F00780
F80F80
F80F80
FC1F80
7FFF00
7FFF00
3FFE00
1FFC00
03E000
ENDCHAR

STARTCHAR Utilde
ENCODING 221
SWIDTH 592 0
DWIDTH 22 0
BBX 17 35 3 0
BITMAP
070C00
0F9C00
1FF800
1DF800
187000
000000
000000
F00780
F00780
F00780
F00780
F00780
F00780
F00780
F00780
F00780
F00780
F00780
F00780
F00780
F00780
F00780
F00780
F00780
F00780
F00780
F00780
F80F80
F80F80
FC1F80
7FFF00
7FFF00
3FFE00
1FFC00
03F000
ENDCHAR

STARTCHAR Umacron
ENCODING 222
SWIDTH 592 0
DWIDTH 22 0
BBX 17 34 3 0
BITMAP
0FF800
0FF800
0FF800
000000
000000
000000
F00780
F00780
F00780
F00780
F00780
F00780
F00780
F00780
F00780
F00780
F00780
F00780
F00780
F00780
F00780
F00780
F00780
F00780
F00780
F00780
F80F80
F80F80
FC1F80
7FFF00
7FFF00
3FFE00
1FFC00
03E000
ENDCHAR

STARTCHAR germandbls
ENCODING 223
SWIDTH 501 0
DWIDTH 19 0
BBX 16 28 2 0
BITMAP
0FC0
3FF0
7FF0
7FF8
F8F8
F878
F078
F0F8
F0F8
F1F0
F1F0
F1E0
F3E0
F3F0
F1F0
F1F8
F0FC
F07E
F03E
F03F
F01F
F00F
F08F
F19F
F7FF
F3FE
F1FC
F0F8
ENDCHAR

STARTCHAR amacron
ENCODING 224
SWIDTH 456 0
DWIDTH 17 0
BBX 15 26 1 0
BITMAP
1FF0
1FF0
1FF0
0000
0000
0000
0FE0
3FF8
3FF8
7FFC
787C
F83C
003C
007C
07FC
3FFC
7FBC
FC3C
F03C
F03C
F07C
F8FC
FFFC
7FDC
3F9E
1E1E
ENDCHAR

STARTCHAR aacute
ENCODING 225
SWIDTH 456 0
DWIDTH 17 0
BBX 15 28 1 0
BITMAP
01F0
01E0
03C0
03C0
0380
0700
0000
0000
0FE0
3FF8
3FF8
7FFC
787C
F83C
003C
007C
07FC
3FFC
7FBC
FC3C
F03C
F03C
F07C
F8FC
FFFC
7FDC
3F9E
1E1E
ENDCHAR

STARTCHAR acircumflex
ENCODING 226
SWIDTH 456 0
DWIDTH 17 0
BBX 15 28 1 0
BITMAP
0780
07C0
0FE0
0EE0
1EF0
3C78
0000
0000
0FE0
3FF8
3FF8
7FFC
787C
F83C
003C
007C
07FC
3FFC
7FBC
FC3C
F03C
F03C
F07C
F8FC
FFFC
7FDC
3F9E
1E1E
ENDCHAR

STARTCHAR atilde
ENCODING 227
SWIDTH 456 0
DWIDTH 17 0
BBX 15 27 1 0
BITMAP
1E18
1F38
3FF0
33F0
30E0
0000
0000
0FE0
3FF8
3FF8
7FFC
787C
F83C
003C
007C
07FC
3FFC
7FBC
FC3C
F03C
F03C
F07C
F8FC
FFFC
7FDC
3F9E
1E1E
ENDCHAR

STARTCHAR adieresis
ENCODING 228
SWIDTH 456 0
DWIDTH 17 0
BBX 15 28 1 0
BITMAP
3C78
3C78
3C78
3C78
0000
0000
0000
0000
0FE0
3FF8
3FF8
7FFC
787C
F83C
003C
007C
07FC
3FFC
7FBC
FC3C
F03C
F03C
F07C
F8FC
FFFC
7FDC
3F9E
1E1E
ENDCHAR

STARTCHAR aring
ENCODING 229
SWIDTH 456 0
DWIDTH 17 0
BBX 15 28 1 0
BITMAP
0380
07C0
0C60
0C60
0C60
07C0
0380
0000
0FE0
3FF8
3FF8
7FFC
787C
F83C
003C
007C
07FC
3FFC
7FBC
FC3C
F03C
F03C
F07C
F8FC
FFFC
7FDC
3FBE
1E1E
ENDCHAR

STARTCHAR ae
ENCODING 230
SWIDTH 729 0
DWIDTH 28 0
BBX 25 20 1 0
BITMAP
0FE1F000
3FF7FC00
3FFFFE00
7FFFFF00
F87F0F00
303E0F00
003C0780
00FC0780
0FFFFF80
3FFFFF80
7F3FFF80
FC3C0000
F03C0000
F03E0400
F07E0F80
F8FF1F80
FFFFFF00
7FEFFE00
3FC7FC00
1F01F800
ENDCHAR

STARTCHAR iogonek
ENCODING 231
SWIDTH 228 0
DWIDTH 9 0
BBX 7 36 1 -8
BITMAP
78
78
78
78
78
00
00
00
78
78
78
78
78
78
78
78
78
78
78
78
78
78
78
78
78
78
78
78
60
E0
E0
E0
F0
7E
7E
3C
ENDCHAR

STARTCHAR ccaron
ENCODING 232
SWIDTH 456 0
DWIDTH 17 0
BBX 15 28 2 0
BITMAP
3C78
1CF0
1EE0
0FE0
07C0
07C0
0000
0000
07E0
1FF0
3FF8
7FFC
7C7C
F83E
F818
F000
F000
F000
F000
F000
F810
F81E
F83E
7C7C
7FFC
3FF8
1FF0
07E0
ENDCHAR

STARTCHAR eacute
ENCODING 233
SWIDTH 456 0
DWIDTH 17 0
BBX 15 28 1 0
BITMAP
01F0
01E0
03E0
03C0
0380
0700
0000
0000
07C0
1FF0
3FF8
7FFC
7C3C
F83C
F01E
F01E
FFFE
FFFE
FFFE
F000
F000
F830
783E
7C7C
7FFC
3FF8
1FF0
07C0
ENDCHAR

STARTCHAR eogonek
ENCODING 234
SWIDTH 456 0
DWIDTH 17 0
BBX 15 28 1 -8
BITMAP
07C0
1FF0
3FF8
7FFC
7C3C
F83E
F81E
F01E
FFFE
FFFE
FFFE
F000
F800
F810
783E
7C7C
7FFC
3FF8
1FF0
07E0
0380
0380
0380
0380
03C8
01F8
01F8
00F0
ENDCHAR

STARTCHAR edieresis
ENCODING 235
SWIDTH 456 0
DWIDTH 17 0
BBX 15 28 1 0
BITMAP
3C78
3C78
3C78
3C78
0000
0000
0000
0000
0FE0
1FF0
3FF8
7FFC
7C3C
F83E
F81E
F01E
FFFE
FFFE
FFFE
F000
F000
F810
783E
7C7E
7FFC
3FF8
1FF0
07E0
ENDCHAR

STARTCHAR edotaccent
ENCODING 236
SWIDTH 456 0
DWIDTH 17 0
BBX 15 28 1 0
BITMAP
0780
0780
0780
0780
0780
0000
0000
0000
0FC0
1FF0
3FF8
7FFC
787C
F83C
F03E
F01E
FFFE
FFFE
FFFE
F000
F000
F030
783E
7C7C
7FFC
3FF8
1FF0
07C0
ENDCHAR

STARTCHAR iacute
ENCODING 237
SWIDTH 228 0
DWIDTH 9 0
BBX 7 28 2 0
BITMAP
3E
78
78
F0
E0
C0
00
00
F0
F0
F0
F0
F0
F0
F0
F0
F0
F0
F0
F0
F0
F0
F0
F0
F0
F0
F0
F0
ENDCHAR

STARTCHAR icircumflex
ENCODING 238
SWIDTH 228 0
DWIDTH 9 0
BBX 10 28 -1 0
BITMAP
1E00
3F00
3F00
7B80
F3C0
E1C0
0000
0000
1E00
1E00
1E00
1E00
1E00
1E00
1E00
1E00
1E00
1E00
1E00
1E00
1E00
1E00
1E00
1E00
1E00
1E00
1E00
1E00
ENDCHAR

STARTCHAR imacron
ENCODING 239
SWIDTH 228 0
DWIDTH 9 0
BBX 10 26 -1 0
BITMAP
FFC0
FFC0
FFC0
0000
0000
0000
1E00
1E00
1E00
1E00
1E00
1E00
1E00
1E00
1E00
1E00
1E00
1E00
1E00
1E00
1E00
1E00
1E00
1E00
1E00
1E00
ENDCHAR

STARTCHAR dcroat
ENCODING 240
SWIDTH 501 0
DWIDTH 19 0
BBX 17 28 2 0
BITMAP
001E00
001E00
001E00
01FF80
01FF80
001E00
001E00
001E00
0F9E00
3FDE00
3FEE00
7FFE00
7C7E00
F83E00
F81E00
F01E00
F01E00
F01E00
F01E00
F01E00
F01E00
F83E00
F83E00
7C7E00
7FFE00
3FEE00
1FDE00
0F9E00
ENDCHAR

STARTCHAR ncommaaccent
ENCODING 241
SWIDTH 501 0
DWIDTH 19 0
BBX 15 29 2 -9
BITMAP
F1F0
F7F8
F7FC
FFFE
FC3E
F83E
F81E
F81E
F01E
F01E
F01E
F01E
F01E
F01E
F01E
F01E
F01E
F01E
F01E
F01E
0000
0000
0380
0380
0380
0180
0380
0300
0200
ENDCHAR

STARTCHAR omacron
ENCODING 242
SWIDTH 501 0
DWIDTH 19 0
BBX 16 26 2 0
BITMAP
1FF8
1FF8
1FF8
0000
0000
0000
07E0
1FF8
3FFC
3FFC
7C3E
F81F
F81F
F00F
F00F
F00F
F00F
F00F
F00F
F81F
781E
7E7E
3FFC
3FFC
1FF8
07E0
ENDCHAR

STARTCHAR kcommaaccent
ENCODING 243
SWIDTH 456 0
DWIDTH 17 0
BBX 15 37 2 -9
BITMAP
F000
F000
F000
F000
F000
F000
F000
F000
F07E
F0FC
F0F8
F1F0
F3E0
F7C0
F7C0
FF80
FFC0
FFC0
FFE0
FDE0
F9F0
F1F0
F0F0
F0F8
F078
F07C
F03C
F03E
0000
0000
0700
0700
0700
0300
0700
0600
0400
ENDCHAR

STARTCHAR ocircumflex
ENCODING 244
SWIDTH 501 0
DWIDTH 19 0
BBX 16 28 2 0
BITMAP
03C0
07E0
07E0
0F70
0E70
1E38
0000
0000
07E0
1FF8
3FFC
3FFC
7C3E
F81F
F81F
F00F
F00F
F00F
F00F
F00F
F00F
F81F
781E
7E7E
3FFC
3FFC
1FF8
07E0
ENDCHAR

STARTCHAR otilde
ENCODING 245
SWIDTH 501 0
DWIDTH 19 0
BBX 16 27 2 0
BITMAP
0E18
1F98
1FF8
19F0
1870
0000
0000
07E0
1FF8
3FFC
3FFC
7C3E
F81F
F81F
F00F
F00F
F00F
F00F
F00F
F00F
F81F
781E
7E7E
3FFC
3FFC
1FF8
07E0
ENDCHAR

STARTCHAR odieresis
ENCODING 246
SWIDTH 501 0
DWIDTH 19 0
BBX 16 28 2 0
BITMAP
1E78
1E78
1E78
1E78
0000
0000
0000
0000
07E0
1FF8
3FFC
7FFE
7C3E
F81F
F81F
F00F
F00F
F00F
F00F
F00F
F00F
F81F
781E
7E7E
3FFC
3FFC
1FF8
07E0
ENDCHAR

STARTCHAR divide
ENCODING 247
SWIDTH 479 0
DWIDTH 18 0
BBX 16 20 1 3
BITMAP
03C0
03C0
03C0
03C0
03C0
0000
0000
FFFF
FFFF
FFFF
FFFF
FFFF
0000
0000
0000
03C0
03C0
03C0
03C0
03C0
ENDCHAR

STARTCHAR oslash
ENCODING 248
SWIDTH 501 0
DWIDTH 19 0
BBX 16 22 2 -1
BITMAP
0002
07E6
1FF7
3FFE
3FFC
7C3E
783E
F87F
F0EF
F0CF
F1CF
F38F
F70F
F70F
FE1F
7C1E
7C3E
3FFC
7FF8
7FF0
E7E0
4000
ENDCHAR

STARTCHAR uogonek
ENCODING 249
SWIDTH 501 0
DWIDTH 19 0
BBX 17 28 2 -8
BITMAP
F03C00
F03C00
F03C00
F03C00
F03C00
F03C00
F03C00
F03C00
F03C00
F03C00
F03C00
F03C00
F03C00
F03C00
F87C00
F8FC00
FFFC00
7FDC00
3FBC00
1E1C00
003800
003800
003800
003800
003C80
001F80
001F80
000F00
ENDCHAR

STARTCHAR uacute
ENCODING 250
SWIDTH 501 0
DWIDTH 19 0
BBX 14 28 2 0
BITMAP
01E0
03C0
03C0
0380
0700
0700
0000
0000
F03C
F03C
F03C
F03C
F03C
F03C
F03C
F03C
F03C
F03C
F03C
F03C
F03C
F03C
F87C
F8FC
FFFC
7FDC
3FBC
1E3C
ENDCHAR

STARTCHAR ucircumflex
ENCODING 251
SWIDTH 501 0
DWIDTH 19 0
BBX 14 28 2 0
BITMAP
0780
0FC0
0FC0
1EE0
1CE0
3870
0000
0000
F03C
F03C
F03C
F03C
F03C
F03C
F03C
F03C
F03C
F03C
F03C
F03C
F03C
F03C
F87C
F8FC
FFFC
7FDC
3FBC
1E3C
ENDCHAR

STARTCHAR udieresis
ENCODING 252
SWIDTH 501 0
DWIDTH 19 0
BBX 14 28 2 0
BITMAP
3CF0
3CF0
3CF0
3CF0
0000
0000
0000
0000
F03C
F03C
F03C
F03C
F03C
F03C
F03C
F03C
F03C
F03C
F03C
F03C
F03C
F03C
F87C
F8FC
FFFC
7FDC
3FBC
1E3C
ENDCHAR

STARTCHAR utilde
ENCODING 253
SWIDTH 501 0
DWIDTH 19 0
BBX 14 27 2 0
BITMAP
1E30
1F30
3FF0
33F0
30E0
0000
0000
F03C
F03C
F03C
F03C
F03C
F03C
F03C
F03C
F03C
F03C
F03C
F03C
F03C
F03C
F87C
F8FC
FFFC
7FDC
3FBC
1E3C
ENDCHAR

STARTCHAR umacron
ENCODING 254
SWIDTH 501 0
DWIDTH 19 0
BBX 14 26 2 0
BITMAP
3FF0
3FF0
3FF0
0000
0000
0000
F03C
F03C
F03C
F03C
F03C
F03C
F03C
F03C
F03C
F03C
F03C
F03C
F03C
F03C
F87C
F8FC
FFFC
7FDC
3FBC
1E3C
ENDCHAR

STARTCHAR dotaccent
ENCODING 255
SWIDTH 273 0
DWIDTH 10 0
BBX 4 5 3 23
BITMAP
F0
F0
F0
F0
F0
ENDCHAR
ENDFONT
